<svg width="31" height="29" viewBox="0 0 31 29" fill="none" xmlns="http://www.w3.org/2000/svg">
<path d="M13.2007 21.1981C15.378 21.1977 17.4926 20.511 19.2078 19.2474L24.6003 24.3276L26.3348 22.6935L20.9423 17.6133C22.2843 15.9973 23.0136 14.0046 23.0142 11.9528C23.0142 6.85522 18.6116 2.70755 13.2007 2.70755C7.78978 2.70755 3.38721 6.85522 3.38721 11.9528C3.38721 17.0505 7.78978 21.1981 13.2007 21.1981ZM13.2007 5.01887C17.2598 5.01887 20.5608 8.12875 20.5608 11.9528C20.5608 15.7769 17.2598 18.8868 13.2007 18.8868C9.14159 18.8868 5.84058 15.7769 5.84058 11.9528C5.84058 8.12875 9.14159 5.01887 13.2007 5.01887Z" fill="black"/>
<path d="M14.9328 10.3187C15.3977 10.7579 15.6541 11.338 15.6541 11.9528H18.1075C18.1086 11.3455 17.9819 10.7439 17.7347 10.1829C17.4875 9.62196 17.1247 9.11272 16.6674 8.68463C14.8102 6.93728 11.5901 6.93728 9.73413 8.68463L11.4662 10.321C12.3985 9.44506 14.0055 9.44737 14.9328 10.3187Z" fill="#A332A5"/>
</svg>