<svg width="54" height="54" viewBox="0 0 54 54" fill="none" xmlns="http://www.w3.org/2000/svg">
<path d="M28.791 35.5473H43.1865C43.7263 35.5473 44.0862 35.1875 44.0862 34.6476V26.5502C44.0862 26.0103 43.7263 25.6505 43.1865 25.6505H28.791C28.2512 25.6505 27.8914 26.0103 27.8914 26.5502V34.6476C27.8913 35.1874 28.2512 35.5473 28.791 35.5473ZM29.6907 27.4498H42.2868V33.7478H29.6907V27.4498Z" fill="black"/>
<path d="M4.49868 23.8509H11.6965C12.2363 23.8509 12.5962 23.4911 12.5962 22.9512C12.5962 22.4114 12.2363 22.0515 11.6965 22.0515H4.49868C3.95885 22.0515 3.599 22.4114 3.599 22.9512C3.599 23.4911 3.95885 23.8509 4.49868 23.8509Z" fill="black"/>
<path d="M15.2952 23.8509H22.493C23.0328 23.8509 23.3927 23.4911 23.3927 22.9512C23.3927 22.4114 23.0328 22.0515 22.493 22.0515H15.2952C14.7554 22.0515 14.3955 22.4114 14.3955 22.9512C14.3955 23.4911 14.7554 23.8509 15.2952 23.8509Z" fill="black"/>
<path d="M4.49868 27.4498H16.195C16.7348 27.4498 17.0947 27.09 17.0947 26.5502C17.0947 26.0103 16.7348 25.6505 16.195 25.6505H4.49868C3.95885 25.6505 3.599 26.0103 3.599 26.5502C3.599 27.09 3.95885 27.4498 4.49868 27.4498Z" fill="black"/>
<path d="M22.4929 25.6504H19.7937C19.2539 25.6504 18.894 26.0102 18.894 26.5501C18.894 27.0899 19.2539 27.4498 19.7937 27.4498H22.4929C23.0327 27.4498 23.3926 27.0899 23.3926 26.5501C23.3926 26.0102 23.0327 25.6504 22.4929 25.6504Z" fill="black"/>
<path d="M53.1734 14.4939C52.5436 13.6841 51.7339 13.2343 50.7441 13.1443L48.5848 12.8826V10.3551V8.55575C48.5848 6.5764 46.9653 4.95691 44.986 4.95691H3.59884C1.61949 4.9568 0 6.5763 0 8.55575V10.3552V17.553V37.3468C0 38.9719 1.092 40.3536 2.57822 40.7964C2.53288 42.6165 3.90998 44.1965 5.75827 44.3646L47.3253 49.0431C47.4152 49.0431 47.5952 49.0431 47.6851 49.0431C49.4846 49.0431 51.1041 47.6935 51.284 45.9841L53.9831 17.1031C54.0731 16.2033 53.8032 15.2136 53.1734 14.4939ZM1.79947 11.2549H46.7855V13.5942V16.6532H1.79947V11.2549ZM3.59884 6.75628H44.9859C45.9756 6.75628 46.7854 7.56602 46.7854 8.55575V9.45543H1.79947V8.55575C1.79947 7.56602 2.60922 6.75628 3.59884 6.75628ZM1.79947 37.3467V18.4526H46.7855V37.3467C46.7855 38.3364 45.9757 39.1462 44.986 39.1462H3.68888H3.59895C2.60922 39.1462 1.79947 38.3364 1.79947 37.3467ZM52.1837 16.7432L49.4845 45.6241C49.3946 46.6139 48.4948 47.3336 47.5052 47.2436L6.02808 42.5651C5.1284 42.4752 4.49852 41.7554 4.40859 40.9456H44.9859C46.9652 40.9456 48.5847 39.3261 48.5847 37.3468V17.5529V14.5838L50.6541 14.7638C51.104 14.7638 51.5538 15.0337 51.8237 15.3936C52.0937 15.7534 52.2737 16.2933 52.1837 16.7432Z" fill="black"/>
</svg>