<svg width="59" height="59" viewBox="0 0 59 59" fill="none" xmlns="http://www.w3.org/2000/svg">
<g clip-path="url(#clip0_28_19)">
<path d="M41.6088 12.7584C41.9633 12.2051 41.8017 11.4689 41.2484 11.1147C37.7429 8.87064 33.6806 7.6843 29.5002 7.6843C17.4711 7.6843 7.68433 17.4708 7.68433 29.5002C7.68433 41.5295 17.471 51.316 29.5002 51.316C41.5294 51.316 51.3161 41.5295 51.3158 29.5003C51.3158 24.5824 49.7186 19.9398 46.6964 16.0744C46.292 15.5569 45.5441 15.4653 45.0262 15.8699C44.5083 16.2746 44.4169 17.0223 44.8217 17.5402C47.5133 20.9829 48.936 25.1186 48.936 29.5C48.936 40.2171 40.2171 48.936 29.5001 48.936C18.783 48.936 10.0643 40.217 10.0643 29.4999C10.0643 18.7829 18.7831 10.0641 29.5002 10.0641C33.2249 10.0641 36.8435 11.1205 39.9651 13.119C40.518 13.4732 41.2544 13.3119 41.6088 12.7584Z" fill="black"/>
<path d="M57.6622 29.499C57.6622 28.131 57.9932 26.6158 58.3132 25.1506C58.8753 22.5765 59.4566 19.9147 58.4568 17.5038C57.4145 14.9903 55.0738 13.5058 52.8101 12.0703C51.529 11.2578 50.3189 10.4906 49.4136 9.58518C48.5085 8.67989 47.741 7.46993 46.9287 6.18875C45.4931 3.9252 44.0087 1.58444 41.4954 0.542142C39.0842 -0.457402 36.4227 0.123726 33.8484 0.68584C32.3832 1.00585 30.8681 1.33668 29.5002 1.33668C28.1322 1.33668 26.6171 1.00585 25.1519 0.68584C22.5779 0.123726 19.916 -0.457518 17.5049 0.542142C14.9914 1.58432 13.5072 3.92508 12.0716 6.18875C11.2593 7.46982 10.4919 8.67989 9.5867 9.58518C8.68142 10.4903 7.47123 11.2578 6.19028 12.0701C3.92649 13.5057 1.58573 14.9903 0.543438 17.5038C-0.456223 19.9146 0.124906 22.5763 0.68702 25.1504C1.00703 26.6156 1.33798 28.1308 1.33798 29.4988C1.33798 30.8667 1.00703 32.3819 0.68702 33.8471C0.124906 36.4212 -0.456338 39.083 0.543438 41.494C1.58585 44.0076 3.92661 45.492 6.19028 46.9276L6.64787 47.2185C7.20192 47.5718 7.93758 47.4093 8.29101 46.8553C8.64466 46.3012 8.48206 45.5656 7.92802 45.212L7.46489 44.9177C5.42374 43.6234 3.49586 42.4008 2.74177 40.5825C2.02824 38.8613 2.50634 36.6725 3.01234 34.3551C3.35919 32.7665 3.71792 31.1237 3.71792 29.4988C3.71792 27.8739 3.35931 26.2312 3.01234 24.6424C2.50634 22.3251 2.02835 20.1362 2.74177 18.4151C3.49586 16.5967 5.42374 15.3741 7.46477 14.0798C8.79884 13.234 10.178 12.3591 11.2695 11.2678C12.3607 10.1766 13.2356 8.7972 14.0815 7.46313C15.3757 5.4221 16.5984 3.49445 18.4167 2.74047C20.1377 2.02671 22.3267 2.5047 24.6443 3.01081C26.2328 3.35767 27.8756 3.71639 29.5003 3.71639C31.125 3.71639 32.7675 3.35778 34.3563 3.01081C36.6739 2.5047 38.863 2.02659 40.5839 2.74047C42.4022 3.49445 43.6246 5.4221 44.919 7.46313C45.7649 8.7972 46.6398 10.1766 47.7311 11.2678C48.8224 12.3591 50.2019 13.234 51.5358 14.0799C53.5769 15.3742 55.5047 16.5969 56.2588 18.4151C56.9723 20.1363 56.4942 22.3252 55.9883 24.6425C55.6415 26.2312 55.2828 27.8739 55.2828 29.4989C55.2828 31.1238 55.6414 32.7665 55.9883 34.3552C56.4943 36.6726 56.9723 38.8615 56.2588 40.5825C55.5047 42.4009 53.5768 43.6235 51.5358 44.9178C50.2017 45.7637 48.8226 46.6385 47.7311 47.7298C46.6398 48.8211 45.7649 50.2004 44.919 51.5345C43.6248 53.5755 42.4022 55.5032 40.5839 56.2571C38.8629 56.9708 36.6739 56.4929 34.3563 55.9868C32.7678 55.64 31.125 55.2812 29.5003 55.2812C27.8756 55.2812 26.233 55.6398 24.6443 55.9868C22.3267 56.4929 20.138 56.971 18.4167 56.2574C16.5984 55.5034 15.376 53.5755 14.0815 51.5347C13.7425 51.0001 13.392 50.4476 13.0301 49.9179C12.6592 49.3752 11.9186 49.2361 11.3763 49.6068C10.8337 49.9777 10.6943 50.7181 11.0652 51.2607C11.4042 51.7567 11.7286 52.2678 12.0717 52.8092C13.5073 55.0728 14.9917 57.4135 17.505 58.4558C18.4582 58.8509 19.4499 58.999 20.4602 58.999C22.0062 58.999 23.5953 58.6521 25.152 58.3119C26.6172 57.9919 28.1323 57.6611 29.5003 57.6611C30.8682 57.6611 32.3833 57.9919 33.8485 58.3119C36.4227 58.874 39.0843 59.4553 41.4955 58.4556C44.009 57.4133 45.4932 55.0727 46.9288 52.809C47.7411 51.5279 48.5086 50.3178 49.4137 49.4126C50.319 48.5074 51.5291 47.7399 52.8102 46.9276C55.0739 45.492 57.4146 44.0075 58.4569 41.494C59.4566 39.0832 58.8754 36.4215 58.3133 33.8474C57.9932 32.3822 57.6622 30.8669 57.6622 29.499Z" fill="black"/>
<path d="M19.139 39.8611C19.3714 40.0935 19.6761 40.2097 19.9806 40.2097C20.285 40.2097 20.5897 40.0934 20.8219 39.8611L39.8612 20.8218C40.3259 20.3573 40.3259 19.6038 39.8612 19.1391C39.3964 18.6743 38.6431 18.6743 38.1783 19.1391L19.139 38.1783C18.6744 38.6429 18.6744 39.3964 19.139 39.8611Z" fill="black"/>
<path d="M23.1538 27.5168C25.5595 27.5168 27.5169 25.5596 27.5169 23.1537C27.5169 20.7478 25.5595 18.7906 23.1538 18.7906C20.748 18.7906 18.7906 20.7478 18.7906 23.1537C18.7906 25.5596 20.748 27.5168 23.1538 27.5168ZM23.1538 21.1704C24.2472 21.1704 25.1371 22.06 25.1371 23.1537C25.1371 24.2474 24.2475 25.137 23.1538 25.137C22.0601 25.137 21.1705 24.2474 21.1705 23.1537C21.1706 22.06 22.0602 21.1704 23.1538 21.1704Z" fill="black"/>
<path d="M35.8465 40.2097C38.2523 40.2097 40.2097 38.2525 40.2097 35.8466C40.2097 33.4406 38.2523 31.4835 35.8465 31.4835C33.4408 31.4835 31.4834 33.4407 31.4834 35.8466C31.4834 38.2525 33.4408 40.2097 35.8465 40.2097ZM35.8465 33.8633C36.94 33.8633 37.8298 34.7529 37.8298 35.8466C37.8298 36.9403 36.9402 37.8299 35.8465 37.8299C34.7528 37.8299 33.8632 36.9403 33.8632 35.8466C33.8632 34.7529 34.7528 33.8633 35.8465 33.8633Z" fill="black"/>
</g>
<defs>
<clipPath id="clip0_28_19">
<rect width="59" height="59" fill="white"/>
</clipPath>
</defs>
</svg>