<svg xmlns="http://www.w3.org/2000/svg" width="62" height="62" viewBox="0 0 62 62" fill="none">
  <path d="M18.9625 32.3047C18.7863 32.2265 18.5864 32.2215 18.4066 32.2907C18.2268 32.3599 18.0818 32.4978 18.0036 32.6739L17.6942 33.3708C17.6543 33.4582 17.632 33.5526 17.6288 33.6486C17.6256 33.7447 17.6415 33.8404 17.6755 33.9303C17.7095 34.0201 17.7611 34.1024 17.8271 34.1722C17.8931 34.242 17.9723 34.298 18.0602 34.337C18.148 34.376 18.2427 34.3972 18.3387 34.3993C18.4348 34.4015 18.5304 34.3845 18.6198 34.3495C18.7093 34.3145 18.791 34.2621 18.86 34.1953C18.9291 34.1285 18.9843 34.0486 19.0223 33.9604L19.3317 33.2635C19.4098 33.0874 19.4149 32.8874 19.3456 32.7076C19.2764 32.5278 19.1386 32.3829 18.9625 32.3047Z" fill="black"/>
  <path d="M17.7194 35.1044C17.5433 35.0262 17.3433 35.0212 17.1635 35.0904C16.9837 35.1597 16.8387 35.2976 16.7606 35.4737L14.0096 41.6719C13.9313 41.848 13.9263 42.048 13.9955 42.2279C14.0648 42.4077 14.2026 42.5527 14.3788 42.6309C14.5549 42.7092 14.7549 42.7142 14.9348 42.645C15.1146 42.5757 15.2596 42.4379 15.3378 42.2617L18.0888 36.0635C18.1276 35.9763 18.1488 35.8823 18.1512 35.7869C18.1536 35.6914 18.1372 35.5965 18.1029 35.5074C18.0686 35.4183 18.017 35.3369 17.9512 35.2677C17.8854 35.1986 17.8067 35.143 17.7194 35.1044Z" fill="black"/>
  <path d="M46.9845 11.8759C46.5754 11.3426 46.0484 10.9112 45.4447 10.6155C44.841 10.3199 44.1771 10.1681 43.505 10.1719H39.3556V1.99937C39.3556 1.80668 39.279 1.62187 39.1428 1.48562C39.0065 1.34936 38.8217 1.27281 38.629 1.27281C38.4363 1.27281 38.2515 1.34936 38.1153 1.48562C37.979 1.62187 37.9024 1.80668 37.9024 1.99937V10.1719H33.7126C33.0404 10.168 32.3765 10.3199 31.7728 10.6155C31.1691 10.9112 30.6421 11.3425 30.233 11.8759L29.9846 12.2029L22.6083 16.0127C21.8023 16.4309 21.1534 17.0988 20.7587 17.9165L7.41576 45.7032C6.9375 46.7023 6.87502 47.8503 7.24203 48.8954C7.60904 49.9404 8.37557 50.7973 9.37349 51.278L22.3134 57.4917C22.8255 59.3368 24.5665 60.668 26.5802 60.668H50.6374C51.2055 60.6736 51.7691 60.5665 52.2955 60.3529C52.822 60.1392 53.3008 59.8233 53.7044 59.4234C54.1079 59.0235 54.4282 58.5475 54.6466 58.023C54.8649 57.4985 54.9771 56.936 54.9767 56.3678V23.9233C54.9783 22.9814 54.673 22.0646 54.107 21.3118L46.9845 11.8759ZM38.4686 15.5799C38.5612 15.5983 38.6566 15.5983 38.7493 15.5799C39.0984 15.6159 39.4204 15.7846 39.6488 16.0511C39.8772 16.3177 39.9944 16.6618 39.9764 17.0123C39.9584 17.3628 39.8065 17.6931 39.552 17.9348C39.2975 18.1766 38.9599 18.3114 38.6089 18.3114C38.2579 18.3114 37.9203 18.1766 37.6658 17.9348C37.4113 17.6931 37.2594 17.3628 37.2414 17.0123C37.2234 16.6618 37.3407 16.3177 37.569 16.0511C37.7974 15.7846 38.1194 15.6159 38.4686 15.5799ZM22.1603 55.8061L10.0024 49.968C9.35156 49.6546 8.85158 49.0957 8.61222 48.4141C8.37285 47.7325 8.41364 46.9837 8.72563 46.3322L9.38245 44.9645L22.1603 51.1003V55.8061ZM23.0704 21.3118C22.4925 22.0609 22.1731 22.9772 22.1603 23.9233V49.4884L10.0117 43.6543L22.0688 18.5453C22.3263 18.012 22.7495 17.5763 23.2752 17.3036L27.9426 14.8928L23.0704 21.3118ZM53.5235 53.2812H32.4532C32.2605 53.2812 32.0757 53.3578 31.9395 53.4941C31.8032 53.6303 31.7267 53.8151 31.7267 54.0078C31.7267 54.2005 31.8032 54.3853 31.9395 54.5216C32.0757 54.6578 32.2605 54.7344 32.4532 54.7344H53.5235V56.3678C53.5242 56.7452 53.4497 57.1189 53.3044 57.4672C53.1591 57.8155 52.9459 58.1313 52.6773 58.3964C52.4086 58.6614 52.0899 58.8702 51.7397 59.0108C51.3894 59.1513 51.0147 59.2207 50.6374 59.2148H26.5802C24.9777 59.2148 23.6134 57.9704 23.6134 56.3678V54.7344H27.6095C27.8022 54.7344 27.987 54.6578 28.1232 54.5216C28.2595 54.3853 28.336 54.2005 28.336 54.0078C28.336 53.8151 28.2595 53.6303 28.1232 53.4941C27.987 53.3578 27.8022 53.2812 27.6095 53.2812H23.6134V23.9233C23.6256 23.2886 23.8419 22.6747 24.2302 22.1725L31.3778 12.7514C31.6541 12.3967 32.0085 12.1106 32.4135 11.9152C32.8184 11.7198 33.263 11.6205 33.7126 11.625H37.9024V14.2149C37.2425 14.3913 36.6693 14.8015 36.2895 15.3692C35.9097 15.937 35.7493 16.6234 35.8383 17.3007C35.9272 17.9779 36.2593 18.5997 36.7728 19.0501C37.2862 19.5006 37.946 19.749 38.629 19.749C39.312 19.749 39.9718 19.5006 40.4852 19.0501C40.9987 18.5997 41.3308 17.9779 41.4198 17.3007C41.5087 16.6234 41.3483 15.937 40.9685 15.3692C40.5887 14.8015 40.0155 14.3913 39.3556 14.2149V11.625H43.505C43.9524 11.6206 44.3947 11.72 44.7972 11.9154C45.1997 12.1108 45.5515 12.3969 45.8248 12.7512L52.9471 22.1872C53.3234 22.6875 53.5258 23.2972 53.5235 23.9233V53.2812Z" fill="black"/>
  <path d="M49.6484 29.1836H27.6094C27.4167 29.1836 27.2319 29.2601 27.0956 29.3964C26.9594 29.5327 26.8828 29.7175 26.8828 29.9102V48.5586C26.8828 48.7513 26.9594 48.9361 27.0956 49.0724C27.2319 49.2086 27.4167 49.2852 27.6094 49.2852H49.6484C49.8411 49.2852 50.0259 49.2086 50.1622 49.0724C50.2985 48.9361 50.375 48.7513 50.375 48.5586V29.9102C50.375 29.7175 50.2985 29.5327 50.1622 29.3964C50.0259 29.2601 49.8411 29.1836 49.6484 29.1836ZM48.9219 47.832H28.3359V30.6367H48.9219V47.832Z" fill="black"/>
  <line x1="30" y1="39" x2="47" y2="39" stroke="black" stroke-width="2"/>
</svg>