<svg xmlns="http://www.w3.org/2000/svg" width="62" height="62" viewBox="0 0 62 62" fill="none">
  <path d="M58.8517 31C59.3361 31 59.6751 30.6125 59.7236 30.1766V19.6172C59.7236 19.1328 59.3361 18.7938 58.8517 18.7453H56.5267L55.5095 11.8188C55.4611 11.3344 55.0251 11.0438 54.5408 11.0922L41.4142 13.0297H41.3658L3.00327 18.7938C3.00327 18.7938 2.27671 18.9391 2.27671 19.6172V30.1281C2.27671 30.6125 2.66421 30.9516 3.10015 31C5.2314 31 6.92671 32.6953 6.92671 34.8266C6.92671 36.9578 5.2314 38.6531 3.10015 38.6531C2.61577 38.6531 2.27671 39.0406 2.22827 39.4766V49.9875C2.22827 50.4719 2.61577 50.8109 3.10015 50.8594H58.8033C59.2876 50.8594 59.6267 50.4719 59.6751 49.9875V39.525C59.6751 39.0406 59.2876 38.7016 58.8517 38.6531C56.7205 38.6531 55.0251 36.9578 55.0251 34.8266C55.0251 32.6953 56.7205 31 58.8517 31ZM40.7845 14.8703L41.1236 17.1469C41.172 17.5828 41.5595 17.8734 41.947 17.8734H42.0923C42.5767 17.825 42.8673 17.3891 42.8189 16.9047L42.4798 14.6281L53.9595 12.9328L54.8314 18.7938H14.5798L40.7845 14.8703ZM58.0283 40.3V49.2125H45.483V46.8875C45.483 46.4031 45.0955 46.0156 44.6111 46.0156C44.1267 46.0156 43.7392 46.4031 43.7392 46.8875V49.2125H4.02046V40.3C7.02358 39.8156 9.1064 37.0063 8.62202 34.0031C8.23452 31.6297 6.3939 29.7406 4.02046 29.4016V20.4891H43.7876V22.7656C43.7876 23.25 44.1751 23.6375 44.6595 23.6375C45.1439 23.6375 45.5314 23.25 45.5314 22.7656V20.4406H58.0767V29.3531C55.0736 29.8375 52.9908 32.6469 53.4751 35.65C53.7658 38.0719 55.6064 39.9125 58.0283 40.3Z" fill="black"/>
  <path d="M44.6109 36.1344C44.1265 36.1344 43.7875 36.5219 43.739 36.9578V42.5766C43.739 43.0609 44.1265 43.4484 44.6109 43.4484C45.0953 43.4484 45.4828 43.0609 45.4828 42.5766V37.0063C45.4828 36.5219 45.0953 36.1344 44.6109 36.1344Z" fill="black"/>
  <path d="M44.6109 26.2531C44.1265 26.2531 43.7875 26.6406 43.739 27.0766V32.6953C43.739 33.1797 44.1265 33.5672 44.6109 33.5672C45.0953 33.5672 45.4828 33.1797 45.4828 32.6953V27.0766C45.4828 26.6406 45.0953 26.2531 44.6109 26.2531Z" fill="black"/>
  <path d="M13.2234 27.6094H23.7344C24.2188 27.6094 24.6063 27.2219 24.6063 26.7375C24.6063 26.2531 24.2188 25.9141 23.7344 25.9141H13.2234C12.7391 25.9141 12.3516 26.3016 12.3516 26.7859C12.3516 27.2703 12.7391 27.6094 13.2234 27.6094Z" fill="black"/>
  <path d="M34.2453 31.2906H13.2234C12.7391 31.2906 12.3516 31.6781 12.3516 32.1625C12.3516 32.6469 12.7391 33.0344 13.2234 33.0344H34.2453C34.7297 33.0344 35.1172 32.6469 35.1172 32.1625C35.1172 31.6781 34.7297 31.2906 34.2453 31.2906Z" fill="black"/>
  <path d="M34.2453 36.6672H13.2234C12.7391 36.6672 12.3516 37.0547 12.3516 37.5391C12.3516 38.0234 12.7391 38.4109 13.2234 38.4109H34.2453C34.7297 38.4109 35.1172 38.0234 35.1172 37.5391C35.1172 37.0547 34.7297 36.6672 34.2453 36.6672Z" fill="black"/>
  <path d="M34.2453 42.0437H13.2234C12.7391 42.0437 12.3516 42.4312 12.3516 42.9156C12.3516 43.4 12.7391 43.7875 13.2234 43.7875H34.2453C34.7297 43.7875 35.1172 43.4 35.1172 42.9156C35.1172 42.4312 34.7297 42.0437 34.2453 42.0437Z" fill="black"/>
</svg>