<svg width="58" height="58" viewBox="0 0 58 58" fill="none" xmlns="http://www.w3.org/2000/svg">
<g clip-path="url(#clip0_19_339)">
<path d="M13.5336 38.1834C10.3349 38.1834 7.73364 40.7847 7.73364 43.9834C7.73364 47.1821 10.3349 49.7834 13.5336 49.7834C16.7324 49.7834 19.3336 47.1821 19.3336 43.9834C19.3336 40.7847 16.7323 38.1834 13.5336 38.1834ZM13.5336 47.85C11.4011 47.85 9.66701 46.1158 9.66701 43.9834C9.66701 41.8509 11.4012 40.1168 13.5336 40.1168C15.666 40.1168 17.4003 41.851 17.4003 43.9834C17.4003 46.1158 15.666 47.85 13.5336 47.85Z" fill="black"/>
<path d="M46.3999 38.1834C43.2011 38.1834 40.5999 40.7847 40.5999 43.9834C40.5999 47.1821 43.2011 49.7834 46.3999 49.7834C49.5986 49.7834 52.1999 47.1821 52.1999 43.9834C52.1999 40.7847 49.5986 38.1834 46.3999 38.1834ZM46.3999 47.85C44.2673 47.85 42.5332 46.1158 42.5332 43.9834C42.5332 41.8509 44.2674 40.1168 46.3999 40.1168C48.5324 40.1168 50.2665 41.851 50.2665 43.9834C50.2665 46.1158 48.5324 47.85 46.3999 47.85Z" fill="black"/>
<path d="M57.8466 32.8271L49.1465 19.2937C48.9687 19.0172 48.6623 18.85 48.3335 18.85H37.7003C37.1657 18.85 36.7336 19.2831 36.7336 19.8166V43.9833C36.7336 44.5178 37.1657 44.9499 37.7003 44.9499H41.5669V43.0165H38.6669V20.7834H47.8058L56.0669 33.6342V43.0168H51.2335V44.95H57.0335C57.5681 44.95 58.0002 44.518 58.0002 43.9834V33.35C58.0003 33.1654 57.9471 32.9826 57.8466 32.8271Z" fill="black"/>
<path d="M42.5331 31.4166V24.65H50.2665V22.7166H41.5665C41.0319 22.7166 40.5999 23.1497 40.5999 23.6833V32.3833C40.5999 32.9178 41.0319 33.3499 41.5665 33.3499H56.0665V31.4165H42.5331V31.4166Z" fill="black"/>
<path d="M37.7 12.0834H0.966629C0.433074 12.0834 0 12.5164 0 13.05V43.9834C0 44.5179 0.433074 44.95 0.966629 44.95H8.7V43.0166H1.93337V14.0166H36.7334V43.0166H18.3666V44.95H37.7C38.2346 44.95 38.6666 44.5179 38.6666 43.9834V13.05C38.6666 12.5164 38.2346 12.0834 37.7 12.0834Z" fill="black"/>
<path d="M6.76655 39.15H0.966553V41.0834H6.76655V39.15Z" fill="black"/>
<path d="M36.7332 39.15H20.2998V41.0834H36.7332V39.15Z" fill="black"/>
<path d="M57.0334 39.15H53.1667V41.0834H57.0334V39.15Z" fill="black"/>
<path d="M37.7001 15.95H3.8667V17.8834H37.7001V15.95Z" fill="black"/>
<path d="M14.5 43.0166H12.5667V44.95H14.5V43.0166Z" fill="black"/>
<path d="M47.3667 43.0166H45.4333V44.95H47.3667V43.0166Z" fill="black"/>
<path d="M17.4001 8.21663H3.8667V10.15H17.4001V8.21663Z" fill="black"/>
<path d="M1.93337 8.21663H0V10.15H1.93337V8.21663Z" fill="black"/>
</g>
<defs>
<clipPath id="clip0_19_339">
<rect width="58" height="58" fill="white"/>
</clipPath>
</defs>
</svg>
